<svg width="102" height="24" viewBox="0 0 102 24" fill="none" xmlns="http://www.w3.org/2000/svg">
<path fill-rule="evenodd" clip-rule="evenodd" d="M7.15752 0.503236C9.22119 0.445826 11.2321 1.1553 12.9031 2.38484C12.3261 2.97457 11.8855 3.59211 11.5216 4.2257C10.3014 3.32681 8.94407 2.70764 7.22151 2.75624C5.90935 2.79345 4.6698 3.25645 3.7264 4.19203C1.15276 6.75367 2.28831 10.4359 4.2484 12.9974C6.65361 16.1443 10.4138 18.9827 13.9739 20.9518C17.535 18.9827 21.2953 16.1443 23.7005 12.9974C25.6606 10.4359 26.7961 6.75367 24.2224 4.19203C23.279 3.25645 22.0396 2.79345 20.7274 2.75624C17.3652 2.66162 14.4666 4.29753 11.8888 8.31818C11.8485 8.38146 11.7709 8.40589 11.7018 8.37775C11.6326 8.349 11.5943 8.27596 11.6097 8.20154C12.1891 5.42511 14.436 2.3965 16.9189 1.29248C18.1355 0.751872 19.4528 0.466459 20.7914 0.503236C22.7972 0.558403 24.5269 1.33168 25.7831 2.58297C28.991 5.7669 28.4248 10.5056 25.4667 14.3789C22.8524 17.7937 18.4876 21.1879 13.9739 23.5C9.46129 21.1879 5.09615 17.7937 2.48224 14.3789C-0.475855 10.5056 -1.04203 5.7669 2.1657 2.58297C3.42189 1.33168 5.15127 0.558403 7.15752 0.503236Z" fill="#B71921"/>
<path d="M31.3411 6.8294L32.4574 6.46019V10.1762H36.9814V6.8294L38.0978 6.46019V14.7973H36.9814V11.0694H32.4574V14.7973H31.3411V6.8294Z" fill="#B71921"/>
<path d="M39.6263 14.7973V6.46019H44.8906L44.5968 7.35345H40.7426V10.1762H44.6556L44.3618 11.0694H40.7426V13.904H44.8906L44.5968 14.7973H39.6263Z" fill="#B71921"/>
<path d="M45.6297 14.7973L49.0844 6.44828H50.2242L53.6789 14.7973H52.4568L51.74 12.975H47.5803L46.8518 14.7973H45.6297ZM47.9328 12.0818H51.3758L49.6602 7.73458L47.9328 12.0818Z" fill="#B71921"/>
<path d="M60.7424 8.92559C60.7424 10.3072 60.0491 11.0932 58.8388 11.3195L61.3535 14.7973H59.9786L57.5228 11.391H55.9129V14.7973H54.7966V6.46019H58.028C59.7436 6.46019 60.7424 7.25817 60.7424 8.92559ZM55.9129 10.4977H58.0045C59.0386 10.4977 59.6261 9.99751 59.6261 8.92559C59.6261 7.86559 59.0386 7.35345 58.0045 7.35345H55.9129V10.4977Z" fill="#B71921"/>
<path d="M64.6038 14.7973V7.35345H61.5486V6.46019H68.7753L68.4816 7.35345H65.7201V14.7973H64.6038Z" fill="#B71921"/>
<path d="M79.0286 13.6182L78.9111 14.5591C78.3001 14.7616 77.5245 14.8688 76.6667 14.8688C74.1873 14.8688 72.5187 13.5348 72.5187 10.7121V10.5454C72.5187 7.72267 74.2108 6.38873 76.7255 6.38873C77.595 6.38873 78.3823 6.48401 78.9933 6.68648V7.6393C78.3236 7.38918 77.6538 7.28199 76.702 7.28199C74.6456 7.28199 73.635 8.3539 73.635 10.5692V10.6883C73.635 12.9155 74.6338 13.9755 76.655 13.9755C77.642 13.9755 78.3236 13.8564 79.0286 13.6182Z" fill="#424956"/>
<path d="M79.823 14.7973L83.2777 6.44828H84.4175L87.8722 14.7973H86.6501L85.9333 12.975H81.7736L81.045 14.7973H79.823ZM82.1261 12.0818H85.5691L83.8534 7.73458L82.1261 12.0818Z" fill="#424956"/>
<path d="M94.9357 8.92559C94.9357 10.3072 94.2424 11.0932 93.0321 11.3195L95.5468 14.7973H94.1719L91.716 11.391H90.1062V14.7973H88.9899V6.46019H92.2213C93.9369 6.46019 94.9357 7.25817 94.9357 8.92559ZM90.1062 10.4977H92.1978C93.2319 10.4977 93.8194 9.99751 93.8194 8.92559C93.8194 7.86559 93.2319 7.35345 92.1978 7.35345H90.1062V10.4977Z" fill="#424956"/>
<path d="M96.7357 14.7973V6.46019H102L101.706 7.35345H97.852V10.1762H101.765L101.471 11.0694H97.852V13.904H102L101.706 14.7973H96.7357Z" fill="#424956"/>
</svg>
