<svg width="21" height="21" viewBox="0 0 21 21" fill="none" xmlns="http://www.w3.org/2000/svg">
<path d="M3.67962 1.76482L3.73734 1.70711C4.12786 1.31658 4.76103 1.31658 5.15155 1.70711L8.18178 4.73734C8.57231 5.12786 8.57231 5.76103 8.18178 6.15155L6.96861 7.36473C6.78829 7.54504 6.74359 7.82051 6.85763 8.04859C8.17614 10.6856 10.3144 12.8239 12.9514 14.1424C13.1795 14.2564 13.455 14.2117 13.6353 14.0314L14.8484 12.8182C15.239 12.4277 15.8721 12.4277 16.2627 12.8182L19.2929 15.8484C19.6834 16.239 19.6834 16.8721 19.2929 17.2627L19.2352 17.3204C17.1238 19.4317 13.7813 19.6693 11.3925 17.8777L9.29524 16.3048C7.55171 14.9971 6.00289 13.4483 4.69524 11.7048L3.12226 9.60746C1.33072 7.21874 1.56827 3.87617 3.67962 1.76482Z" stroke="#B71921"/>
</svg>
