<svg width="20" height="20" viewBox="0 0 20 20" fill="none" xmlns="http://www.w3.org/2000/svg">
<path d="M3.67962 0.764823L3.73734 0.707107C4.12786 0.316582 4.76103 0.316582 5.15155 0.707106L8.18178 3.73734C8.57231 4.12786 8.57231 4.76103 8.18178 5.15155L6.96861 6.36473C6.78829 6.54504 6.74359 6.82051 6.85763 7.04859C8.17614 9.68562 10.3144 11.8239 12.9514 13.1424C13.1795 13.2564 13.455 13.2117 13.6353 13.0314L14.8484 11.8182C15.239 11.4277 15.8721 11.4277 16.2627 11.8182L19.2929 14.8484C19.6834 15.239 19.6834 15.8721 19.2929 16.2627L19.2352 16.3204C17.1238 18.4317 13.7813 18.6693 11.3925 16.8777L9.29524 15.3048C7.55171 13.9971 6.00289 12.4483 4.69524 10.7048L3.12226 8.60746C1.33072 6.21874 1.56827 2.87617 3.67962 0.764823Z" fill="#B71921"/>
</svg>
